<svg xmlns="http://www.w3.org/2000/svg" aria-hidden="true" style="position:absolute;width:0;height:0;overflow:hidden">
  <defs>
  <symbol id="icon-menu-2" viewBox="0 0 36 32">
<path d="M1.2 4v0c0 1.325 1.075 2.4 2.4 2.4h28.8c1.325 0 2.4-1.075 2.4-2.4s-1.075-2.4-2.4-2.4h-28.8c-1.325 0-2.4 1.075-2.4 2.4zM1.2 16v0c0 1.325 1.075 2.4 2.4 2.4h28.8c1.325 0 2.4-1.075 2.4-2.4s-1.075-2.4-2.4-2.4h-28.8c-1.325 0-2.4 1.075-2.4 2.4zM1.2 28v0c0 1.325 1.075 2.4 2.4 2.4h28.8c1.325 0 2.4-1.075 2.4-2.4s-1.075-2.4-2.4-2.4h-28.8c-1.325 0-2.4 1.075-2.4 2.4z"></path>
</symbol>
  <symbol id="modal-check-icon" viewBox="0 0 32 32">
<path d="M12.637 31.213c1.395 0 2.448-0.534 3.162-1.606l15.45-23.28c0.256-0.381 0.448-0.752 0.566-1.12 0.125-0.381 0.186-0.742 0.186-1.088 0-0.96-0.336-1.754-1.005-2.378-0.608-0.591-1.438-0.955-2.354-0.955-0.031 0-0.062 0-0.092 0.001l0.005-0c-0.672 0-1.238 0.134-1.709 0.4-0.458 0.256-0.893 0.704-1.306 1.341l-12.97 20.368-6.496-7.782c-0.618-0.749-1.547-1.223-2.587-1.223-0.020 0-0.040 0-0.059 0.001l0.003-0c-0.992 0-1.811 0.32-2.461 0.954-0.599 0.585-0.971 1.4-0.971 2.303 0 0.032 0 0.064 0.001 0.096l-0-0.005c0 0.435 0.064 0.848 0.202 1.238 0.144 0.381 0.406 0.774 0.787 1.187l8.618 10.16c0.794 0.928 1.802 1.389 3.030 1.389z"></path>
</symbol>
  <symbol id="icon-user" viewBox="0 0 32 32">
<path stroke-linejoin="round" stroke-linecap="round" stroke-miterlimit="4" stroke-width="2.6667" d="M26.667 28v-2.667c0-2.946-2.388-5.333-5.333-5.333v0h-10.667c-2.946 0-5.333 2.388-5.333 5.333v0 2.667M16 14.667c2.946 0 5.333-2.388 5.333-5.333s-2.388-5.333-5.333-5.333v0c-2.946 0-5.333 2.388-5.333 5.333s2.388 5.333 5.333 5.333v0z"></path>
</symbol>
  <symbol id="icon-phone" viewBox="0 0 32 32">
<path stroke-linejoin="round" stroke-linecap="round" stroke-miterlimit="4" stroke-width="2.6667" d="M29.333 22.56v4c0 0.003 0 0.006 0 0.009 0 1.474-1.195 2.668-2.668 2.668-0.084 0-0.167-0.004-0.249-0.012l0.011 0.001c-4.327-0.482-8.236-1.943-11.607-4.155l0.1 0.062c-3.242-2.081-5.919-4.758-7.938-7.897l-0.062-0.103c-2.158-3.286-3.62-7.214-4.083-11.442l-0.010-0.118c-0.007-0.072-0.011-0.155-0.011-0.24 0-1.472 1.192-2.665 2.664-2.667h4c0.008-0 0.017-0 0.026-0 1.341 0 2.451 0.99 2.639 2.279l0.002 0.014c0.169 1.28 0.483 2.537 0.933 3.747 0.108 0.279 0.171 0.601 0.171 0.938 0 0.731-0.294 1.394-0.771 1.875l-1.693 1.693c1.932 3.356 4.644 6.068 7.897 7.945l0.103 0.055 1.693-1.693c0.481-0.476 1.144-0.771 1.875-0.771 0.337 0 0.66 0.063 0.957 0.177l-0.018-0.006c1.209 0.451 2.467 0.764 3.747 0.933 1.304 0.189 2.294 1.299 2.294 2.641 0 0.023-0 0.046-0.001 0.070l0-0.003z"></path>
</symbol>
  <symbol id="icon-mail" viewBox="0 0 32 32">
<path stroke-linejoin="round" stroke-linecap="round" stroke-miterlimit="4" stroke-width="2.6667" d="M5.333 5.333h21.333c1.467 0 2.667 1.2 2.667 2.667v16c0 1.467-1.2 2.667-2.667 2.667h-21.333c-1.467 0-2.667-1.2-2.667-2.667v-16c0-1.467 1.2-2.667 2.667-2.667z"></path>
<path stroke-linejoin="round" stroke-linecap="round" stroke-miterlimit="4" stroke-width="2.6667" d="M29.333 8l-13.333 9.333-13.333-9.333"></path>
</symbol>
  <symbol id="icon-x-close" viewBox="0 0 32 32">
<path stroke-linejoin="round" stroke-linecap="round" stroke-miterlimit="4" stroke-width="2.2857" d="M24 8l-16 16M8 8l16 16"></path>
</symbol>
  <symbol id="icon-ellipse" viewBox="0 0 32 32">
<path fill="#4c4c4c" style="fill: var(--color1, #4c4c4c); stroke: var(--color2, #eceded)" stroke="#eceded" stroke-linejoin="miter" stroke-linecap="butt" stroke-miterlimit="4" stroke-width="4" d="M30 16c0 7.732-6.268 14-14 14s-14-6.268-14-14c0-7.732 6.268-14 14-14s14 6.268 14 14z"></path>
</symbol>
  <symbol id="icon-scroll" viewBox="0 0 32 32">
<path d="M16.945 17.868c-0.242 0.242-0.576 0.392-0.945 0.392s-0.704-0.15-0.945-0.392l-0-0-6.109-6.121c-0.244-0.264-0.592-0.428-0.979-0.428-0.737 0-1.334 0.597-1.334 1.334 0 0.384 0.162 0.729 0.421 0.973l0.001 0.001 6.119 6.121c0.724 0.723 1.723 1.169 2.826 1.169s2.103-0.447 2.826-1.169l6.121-6.121c0.239-0.241 0.387-0.573 0.387-0.94 0-0.737-0.597-1.334-1.334-1.334-0.37 0-0.705 0.151-0.947 0.394l-0 0-6.106 6.119z"></path>
</symbol>
    <symbol id="icon-twitter" viewBox="0 0 32 32">
      <path stroke-linecap="round" stroke-linejoin="round" stroke-width="2.7" d="M30.7 4c-1.3.9-2.7 1.6-4.2 2A6 6 0 0 0 16 10v1.4c-2.3 0-4.7-.5-6.8-1.5S4.7 6.3 3.3 4.4c0 0-4.6 13 7.4 18.3-2.8 1.8-6 2.8-9.4 2.6C13.3 32 28 25.3 28 10l-.1-1.1c1.4-1.3 2.3-3 2.8-4.9z"/>
    </symbol>
    <symbol id="icon-logo-chocolate" viewBox="0 0 32 32">
      <path fill="none" stroke="#fd9222" stroke-linecap="round" stroke-linejoin="round" stroke-width="2.7" d="M22.3 23.9 8.1 15m4-6.4 14.1 8.9m-14.9 8.4L23 6.6m4.8 8.2c-3-2-4.2-3.4-2.2-6.6l-9.7-6L4.2 21.4l14.2 8.9 9.4-15.5z" style="stroke:var(--color1, #fd9222)"/>
    </symbol>
    <symbol id="icon-lspoon" viewBox="0 0 32 32">
      <path fill="#fd9222" d="M15.5 14.1c-.8-1-1.2-2.1-1.2-3.3 0-4.3 5.2-8.6 10.3-8.6 2.9 0 5.2 2.3 5.2 5.2 0 5.1-4.3 10.3-8.6 10.3-1.2 0-2.4-.4-3.3-1.1L5 29.3A1.7 1.7 0 0 1 2.7 27L15.5 14z" style="fill:var(--color1, #fd9222)"/>
    </symbol>
    <symbol id="icon-coin" viewBox="0 0 32 32">
      <path fill="#fd9222" d="M16 2.7C8.7 2.7 2.7 8.7 2.7 16s6 13.3 13.3 13.3 13.3-6 13.3-13.3c0-7.3-6-13.3-13.3-13.3zm0 24A10.7 10.7 0 1 1 26.7 16c0 5.9-4.8 10.7-10.7 10.7z" style="fill:var(--color1, #fd9222)"/>
      <path fill="#fd9222" d="M17.7 14.7h-3.4c-.7 0-1.2-.6-1.2-1.2s.5-1.2 1.2-1.2h4.9c.8 0 1.3-.6 1.3-1.4s-.5-1.3-1.3-1.3h-1.9V8.4c0-.8-.5-1.3-1.3-1.3s-1.3.5-1.3 1.3v1.2h-.4a3.9 3.9 0 0 0 0 7.7h3.3c.7 0 1.2.6 1.2 1.2s-.5 1.2-1.2 1.2h-5c-.7 0-1.3.6-1.3 1.4s.6 1.3 1.4 1.3h2v1.2c0 .8.5 1.3 1.3 1.3s1.3-.5 1.3-1.3v-1.2h.4a3.9 3.9 0 0 0 0-7.7z" style="fill:var(--color1, #fd9222)"/>
    </symbol>
    <symbol id="icon-chocolate-bar" viewBox="0 0 32 32">
      <path d="m13.8 2.4 7.5 7.5h.1a.9.9 0 0 1 1.2 0l.9.8c.3.3.3.8 0 1.1v.2l6 6.2c.6.5.6 1.4 0 2l-9.3 9.4c-.6.5-1.5.5-2 0L13.7 25a.9.9 0 0 1-.6.4.8.8 0 0 1-.6-.3l-2.6-2.6a.9.9 0 0 1 0-1.2l-7.5-7.6c-.5-.5-.5-1.4 0-2l9.4-9.4c.6-.5 1.5-.5 2 0zm6.6 8.5L18.6 9a.6.6 0 0 0-.8 0l-3.6 3.6-.1.2c-.1.1 0 .2 0 .2v.3l.1.2 1.8 1.7.6-.6-1.6-1.5 3.2-3.3 1.6 1.6.6-.6zm-5 5-1.8-1.7a.6.6 0 0 0-.9 0l-3.6 3.6c-.2.2-.2.6 0 .9l1.8 1.7.6-.6-1.6-1.6 3.3-3.2 1.5 1.6.6-.6zM8.7 8.3l3.6 3.6c.2.2.6.2.9 0l3.5-3.6a.6.6 0 0 0 .2-.4c0-.2 0-.3-.2-.5l-3.5-3.5a.6.6 0 0 0-.9 0L8.8 7.3c-.2.3-.2.7 0 .9zm-5 5 3.5 3.6c.3.3.7.3.9 0l3.6-3.5a.6.6 0 0 0 .1-.5l-.1-.4-3.6-3.6a.6.6 0 0 0-.9 0l-3.5 3.6c-.3.2-.3.6 0 .9zm6.9 8.8 2.3 2.4 9.7-13-.7-.7L10.7 22z" style="fill:var(--color2, #000)"/>
      <path fill="#fd9222" d="m13.8 2.4 7.5 7.5h.1a.9.9 0 0 1 1.2 0l.9.8c.3.3.3.8 0 1.1v.2l6 6.2c.6.5.6 1.4 0 2l-9.3 9.4c-.6.5-1.5.5-2 0L13.7 25a.9.9 0 0 1-.6.4.8.8 0 0 1-.6-.3l-2.6-2.6a.9.9 0 0 1 0-1.2l-7.5-7.6c-.5-.5-.5-1.4 0-2l9.4-9.4c.6-.5 1.5-.5 2 0zm6.6 8.5L18.6 9a.6.6 0 0 0-.8 0l-3.6 3.6-.1.2c-.1.1 0 .2 0 .2v.3l.1.2 1.8 1.7.6-.6-1.6-1.5 3.2-3.3 1.6 1.6.6-.6zm-5 5-1.8-1.7a.6.6 0 0 0-.9 0l-3.6 3.6c-.2.2-.2.6 0 .9l1.8 1.7.6-.6-1.6-1.6 3.3-3.2 1.5 1.6.6-.6zM8.7 8.3l3.6 3.6c.2.2.6.2.9 0l3.5-3.6a.6.6 0 0 0 .2-.4c0-.2 0-.3-.2-.5l-3.5-3.5a.6.6 0 0 0-.9 0L8.8 7.3c-.2.3-.2.7 0 .9zm-5 5 3.5 3.6c.3.3.7.3.9 0l3.6-3.5a.6.6 0 0 0 .1-.5l-.1-.4-3.6-3.6a.6.6 0 0 0-.9 0l-3.5 3.6c-.3.2-.3.6 0 .9zm6.9 8.8 2.3 2.4 9.7-13-.7-.7L10.7 22z" style="fill:var(--color1, #fd9222)"/>
    </symbol>
  </defs>
</svg>
